<?xml version="1.0" encoding="utf-8"?>
<!-- Generator: Adobe Illustrator 22.0.1, SVG Export Plug-In . SVG Version: 6.00 Build 0)  -->
<svg version="1.1" id="Calque_1" xmlns="http://www.w3.org/2000/svg" xmlns:xlink="http://www.w3.org/1999/xlink" x="0px" y="0px"
	 viewBox="0 0 512 512" style="enable-background:new 0 0 512 512;" xml:space="preserve">
<style type="text/css">
	.st0{display:none;fill:#E4F9C2;stroke:#000000;stroke-miterlimit:10;}
	.st1{display:none;}
	.st2{display:inline;fill:#FFFFFF;}
	.st3{display:inline;}
	.st4{display:none;opacity:8.000000e-02;}
	.st5{display:none;opacity:9.000000e-02;fill:#535353;}
	.st6{fill:#29ABE2;}
	.st7{opacity:0.47;fill:#999999;}
	.st8{fill:#FF0000;}
	.st9{fill:#0483AA;}
	.st10{opacity:0.86;fill:#00B6F1;}
	.st11{opacity:0.71;fill:#29CEFA;}
	.st12{opacity:0.68;fill:#5FE2FF;}
	.st13{fill:#84FBFF;}
	.st14{opacity:0.97;fill:#00B6F1;}
	.st15{fill:#B3B3B3;stroke:#000000;stroke-miterlimit:10;}
	.st16{fill:#4D4D4D;stroke:#000000;stroke-miterlimit:10;}
	.st17{opacity:0.25;fill:#FFFFFF;}
	.st18{opacity:0.32;}
</style>
<polygon class="st0" points="86.2,139.1 86.2,372.9 262.1,485.8 438,372.9 438,139.1 262.1,26.2 "/>
<g class="st1">
	<polygon class="st2" points="107.5,153.2 107.5,358.8 262.1,458 416.7,358.8 416.7,153.2 262.1,54 	"/>
	<g class="st3">
		<path d="M107.6,153.3l0.2,102.8l0.1,102.7l-0.2-0.4l38.6,24.8l38.6,24.9l77.2,49.7H262l38.7-24.8l38.6-24.8l77.2-49.7l-0.1,0.2
			l-0.2-205.5l0.2,0.4L339.1,104l-77.3-49.7h0.5L107.6,153.3z M107.5,153.2l154.4-99.6l0.2-0.1l0.2,0.1l77.3,49.6l77.3,49.6l0.2,0.1
			l0,0.3L417,358.8l0,0.1l-0.1,0.1l-77.3,49.5l-38.6,24.8l-38.6,24.9l-0.1,0.1l-0.1-0.1l-77.4-49.5L146,383.9l-38.6-24.8l-0.2-0.1
			l0-0.2l0.1-102.8L107.5,153.2z"/>
	</g>
</g>
<g id="Calque_2">
	<polygon class="st4" points="415.5,333.8 375.7,178.3 281.7,66.7 416.4,154.2 	"/>
	<polygon class="st5" points="86.7,140 139.2,341.1 261.7,484.9 86.7,372.6 	"/>
</g>
<g>
	<circle class="st6" cx="195.6" cy="101.6" r="60.5"/>
	<path class="st7" d="M253,120.9c-5.3,15.7-16.9,29.2-33.3,36.3c-30.7,13.3-66.3-0.8-79.6-31.5c-10.7-24.7-3.7-52.5,15.4-69.4
		c-4.6,13.7-4.4,29,1.8,43.3c13.3,30.7,48.9,44.8,79.6,31.5C242.9,128.5,248.3,125,253,120.9z"/>
</g>
<g>
	<path class="st8" d="M336.4,428.1l-0.5,0.6l1.3-0.6L336.4,428.1z M336.4,428.1l0.2,0.4l0.6-0.3L336.4,428.1z M336.4,428.1l0.2,0.4
		l0.6-0.3L336.4,428.1z M336.4,428.1l0.2,0.4l0.6-0.3L336.4,428.1z M336.4,428.1l0.2,0.4l0.6-0.3L336.4,428.1z M336.4,428.1l0.2,0.4
		l0.6-0.3L336.4,428.1z M336.4,428.1l-0.5,0.6l1.3-0.6L336.4,428.1z M336.4,428.1l-0.5,0.6l1.3-0.6L336.4,428.1z"/>
	<path class="st9" d="M396.7,402.4c4.8,11.1,6.3,22.8,4.9,33.9l-23.2-2.9l0.1-0.1l-16.8-38.8l-0.4-0.1l14-18.9
		C384.4,382.3,391.9,391.3,396.7,402.4z"/>
	<path class="st10" d="M401.6,436.4c-2.7,22.3-16.9,42.7-39,52.2l-9.2-21.3l25.1-33.8L401.6,436.4z"/>
	<path class="st11" d="M353.3,467.2l9.2,21.3c-22.1,9.6-46.6,6-64.8-7.3l13.9-18.9L353.3,467.2z"/>
	<path class="st12" d="M311.4,462.4l0.3,0l-13.9,18.9c-9.1-6.7-16.6-15.7-21.4-26.8c-4.8-11.1-6.3-22.8-4.9-33.9l23.3,2.7l-0.3,0.4
		L311.4,462.4z"/>
	<path class="st10" d="M375.3,375.6l-14,18.9l-41.5-4.8l-9.2-21.3C332.6,358.7,357.2,362.3,375.3,375.6z"/>
	<path class="st11" d="M310.5,368.3l9.2,21.3l-24.9,33.6l-23.3-2.7C274.2,398.2,288.4,377.9,310.5,368.3z"/>
	<polygon class="st13" points="336.4,428.1 335.9,428.7 336.6,428.5 353.3,467.2 311.7,462.4 311.4,462.4 294.6,423.6 294.8,423.3 
		319.8,389.7 	"/>
	<polygon class="st14" points="361.7,394.5 378.5,433.3 378.4,433.4 353.3,467.2 336.6,428.5 337.2,428.2 336.4,428.1 319.8,389.7 
		361.3,394.5 	"/>
</g>
<g>
	
		<rect x="203.8" y="117.2" transform="matrix(0.9176 -0.3974 0.3974 0.9176 -80.8832 125.9283)" class="st15" width="119.1" height="281.9"/>
	<path class="st16" d="M353.3,318.8l-107.2,46.4c-6.9,3-14.9-0.2-17.9-7.1l-61.8-142.8c-3-6.9,0.2-14.9,7.1-17.9L280.7,151
		c6.9-3,14.9,0.2,17.9,7.1l61.8,142.8C363.4,307.8,360.2,315.8,353.3,318.8z"/>
	<path class="st16" d="M270.9,121.6l-112.2,48.6c-2.9,1.3-6.4-0.1-7.6-3l-6.4-14.9c-1.3-2.9,0.1-6.4,3-7.6l112.2-48.6
		c2.9-1.3,6.4,0.1,7.6,3l6.4,14.9C275.2,116.9,273.8,120.3,270.9,121.6z"/>
	<path class="st16" d="M381,375.9l-112.2,48.6c-2.9,1.3-6.4-0.1-7.6-3l-6.4-14.9c-1.3-2.9,0.1-6.4,3-7.6L370,350.4
		c2.9-1.3,6.4,0.1,7.6,3l6.4,14.9C385.3,371.2,383.9,374.6,381,375.9z"/>
	<path class="st17" d="M256.9,358.9c-1.8,1.8-3.9,3.3-6.3,4.4c-9.9,4.3-21.4-0.3-25.7-10.2l-57.1-131.8c-4.3-9.9,0.3-21.4,10.2-25.7
		c2.5-1.1,5-1.6,7.5-1.6c-5.3,5.5-7.1,13.9-3.8,21.3l57.1,131.8C241.9,354.5,249.2,359,256.9,358.9z"/>
	<path class="st18" d="M358.4,355.4l8.6-3.7c4.6-2,9.9,0.1,11.8,4.7l3.9,9c2,4.6-0.1,9.8-4.7,11.8l-8.6,3.7c4.6-2,6.7-7.3,4.7-11.8
		l-3.9-9C368.3,355.5,363,353.4,358.4,355.4z"/>
	<path class="st18" d="M248.3,101.1l8.6-3.7c4.6-2,9.9,0.1,11.8,4.7l3.9,9c2,4.6-0.1,9.8-4.7,11.8l-8.6,3.7c4.6-2,6.7-7.3,4.7-11.8
		l-3.9-9C258.2,101.2,252.9,99.1,248.3,101.1z"/>
</g>
</svg>
